<?xml version="1.0" encoding="UTF-8"?>
<svg id="Layer_2" data-name="Layer 2" xmlns="http://www.w3.org/2000/svg" viewBox="0 0 189.81 36.1">
  <defs>
    <style>
      .cls-1 {
        fill: #9dcfcf;
      }
    </style>
  </defs>
  <g id="Layer_1-2" data-name="Layer 1">
    <g>
      <path class="cls-1" d="M0,.87H29.24V5.24H0M0,30.86H29.24v4.37H0"/>
      <path class="cls-1" d="M71.31,35.23h-19.8c-2.43,0-4.72-.44-6.89-1.31-2.17-.87-4.06-2.09-5.68-3.64-1.62-1.55-2.9-3.4-3.83-5.56-.94-2.15-1.41-4.5-1.41-7.06s.45-4.86,1.36-7.01c.91-2.15,2.16-4.02,3.76-5.6s3.48-2.82,5.63-3.71c2.15-.89,4.49-1.33,7.01-1.33s4.7,.44,6.82,1.31c2.12,.87,3.97,2.08,5.56,3.62s2.84,3.35,3.76,5.43,1.38,4.36,1.38,6.82c0,1.46-.17,2.89-.51,4.29-.34,1.41-.84,2.73-1.5,3.96-.66,1.23-1.49,2.33-2.47,3.3-.99,.97-2.11,1.75-3.37,2.33v.1h10.19v4.08Zm-19.99-4.37c1.88,0,3.6-.35,5.17-1.04,1.57-.7,2.91-1.65,4.03-2.86,1.12-1.21,1.98-2.65,2.6-4.29,.61-1.65,.92-3.41,.92-5.29s-.32-3.51-.95-5.09-1.51-2.96-2.64-4.12c-1.13-1.17-2.48-2.09-4.03-2.77-1.55-.68-3.25-1.02-5.09-1.02s-3.49,.34-5.02,1.02c-1.54,.68-2.87,1.6-4,2.77-1.13,1.17-2.02,2.53-2.67,4.1-.65,1.57-.97,3.24-.97,5.02,0,1.88,.31,3.64,.92,5.29,.61,1.65,1.48,3.09,2.6,4.32s2.45,2.2,4,2.91,3.27,1.07,5.14,1.07Z"/>
      <path class="cls-1" d="M80.24,.87V21.93c0,1.07,.15,2.18,.44,3.32,.29,1.15,.78,2.21,1.46,3.18,.68,.97,1.57,1.76,2.67,2.38,1.1,.62,2.46,.92,4.08,.92s2.98-.31,4.08-.92c1.1-.61,1.99-1.41,2.67-2.38,.68-.97,1.16-2.03,1.46-3.18,.29-1.15,.44-2.26,.44-3.32V.87h4.66V22.66c0,2.01-.34,3.83-1.02,5.46-.68,1.63-1.62,3.05-2.81,4.25-1.2,1.2-2.6,2.12-4.22,2.77-1.62,.65-3.37,.97-5.24,.97s-3.62-.32-5.24-.97c-1.62-.65-3.03-1.57-4.22-2.77-1.2-1.2-2.14-2.61-2.82-4.25-.68-1.63-1.02-3.45-1.02-5.46V.87h4.66Z"/>
      <path class="cls-1" d="M121.15,.87h4.22l14.7,34.36h-5.43l-3.45-8.49h-16.35l-3.4,8.49h-5.43L121.15,.87Zm8.35,21.79l-6.41-15.77h-.1l-6.5,15.77h13Z"/>
      <path class="cls-1" d="M144.54,.87h4.66V30.86h15.77v4.37h-20.43V.87Z"/>
      <path class="cls-1" d="M170.74,28.05c.84,1.26,1.92,2.19,3.23,2.79s2.66,.9,4.05,.9c.78,0,1.57-.12,2.38-.36,.81-.24,1.54-.61,2.21-1.09,.66-.48,1.21-1.08,1.63-1.79,.42-.71,.63-1.54,.63-2.47,0-1.33-.42-2.34-1.26-3.03-.84-.7-1.88-1.28-3.13-1.75-1.25-.47-2.6-.92-4.08-1.36-1.47-.44-2.83-1.04-4.08-1.82s-2.29-1.82-3.13-3.13c-.84-1.31-1.26-3.08-1.26-5.31,0-1,.22-2.07,.66-3.2,.44-1.13,1.12-2.17,2.06-3.11s2.14-1.72,3.62-2.35c1.47-.63,3.24-.95,5.31-.95,1.88,0,3.67,.26,5.39,.78s3.22,1.57,4.51,3.15l-3.79,3.45c-.58-.91-1.41-1.63-2.47-2.18-1.07-.55-2.28-.83-3.64-.83s-2.37,.17-3.23,.51c-.86,.34-1.55,.78-2.06,1.31-.52,.53-.88,1.11-1.09,1.72-.21,.61-.32,1.18-.32,1.7,0,1.46,.42,2.57,1.26,3.35,.84,.78,1.88,1.41,3.13,1.89,1.25,.48,2.6,.92,4.08,1.31,1.47,.39,2.83,.93,4.08,1.63,1.25,.7,2.29,1.63,3.13,2.81,.84,1.18,1.26,2.81,1.26,4.88,0,1.65-.32,3.14-.95,4.46s-1.48,2.44-2.55,3.35c-1.07,.91-2.33,1.6-3.78,2.09-1.46,.49-3.01,.73-4.66,.73-2.2,0-4.29-.39-6.26-1.16-1.97-.78-3.54-1.97-4.71-3.59l3.83-3.3Z"/>
      <path class="cls-1" d="M0,16.3H29.24v4.37H0v-4.37Z"/>
    </g>
  </g>
</svg>