<?xml version="1.0" encoding="UTF-8"?>
<svg id="Layer_2" data-name="Layer 2" xmlns="http://www.w3.org/2000/svg" viewBox="0 0 483.24 345.38">
  <defs>
    <style>
      .cls-1 {
        fill: #fdfdfd;
      }
    </style>
  </defs>
  <g id="Layer_1-2" data-name="Layer 1">
    <g>
      <path class="cls-1" d="M241.07,327.05c-75.88,0-151.76,0-227.64,0-1.66,0-3.33,.03-4.99-.02-6.76-.17-8.4-3-4.79-8.82,16.85-27.13,33.74-54.23,50.76-81.25,3.95-6.27,9.58-9.4,17.5-9.39,112.16,.16,224.31,.22,336.47-.09,10.73-.03,17.36,4.1,22.71,12.84,15.55,25.39,31.48,50.55,47.25,75.8,.88,1.41,1.84,2.8,2.46,4.32,1.45,3.56,.26,5.87-3.62,6.42-1.8,.25-3.65,.17-5.48,.17-76.88,0-153.76,0-230.64,0Zm-119.3-21.23h238.86c-.64-2.15-1.36-3.85-1.64-5.61-.88-5.63-3.63-7.41-9.67-7.38-70.85,.28-141.71,.18-212.56,.18q-12.15,0-15.15,11.87c-.04,.15,.05,.33,.16,.94Zm323.19,.31c-2.44-4.48-4.34-8.12-6.43-11.65-.42-.7-1.55-1.39-2.35-1.39-9.37-.1-18.73-.06-28.93-.06,1.98,4.28,3.4,7.8,5.24,11.08,.57,1.01,2.28,1.93,3.49,1.95,9.29,.16,18.58,.09,28.98,.09Zm-329.66-13.11c-9.99,0-19.09-.06-28.18,.08-1.04,.02-2.56,.86-3.02,1.76-1.79,3.46-3.24,7.1-5.09,11.28,10.25,0,19.66,.07,29.08-.1,1.12-.02,2.76-1.12,3.22-2.14,1.48-3.28,2.52-6.76,3.98-10.88Zm-77.5,13.1c9.52,0,18.95,.04,28.38-.06,1,0,2.49-.51,2.89-1.25,1.96-3.68,3.63-7.52,5.64-11.8-6.81,0-12.6,0-18.39,0q-13.1,0-18.58,11.87c-.06,.13,.01,.31,.07,1.24Zm365.11,0c-1.92-4.38-3.39-8.04-5.16-11.55-.39-.78-1.81-1.46-2.76-1.47-9.23-.11-18.46-.07-28.31-.07,1.43,4.09,2.5,7.56,3.9,10.88,.4,.95,1.8,2.1,2.75,2.12,9.58,.16,19.16,.1,29.58,.1Zm-87.85-17.47c-.75-3.68-1.29-7.1-2.21-10.41-.27-.97-1.58-2.32-2.44-2.34-8.88-.17-17.77-.11-27.05-.11,.61,4.68,1.14,8.71,1.69,12.86h30.01Zm6.96-12.88c.91,3.9,1.56,7.3,2.57,10.59,.3,.99,1.6,2.37,2.46,2.38,9.2,.17,18.4,.11,28.13,.11-1.3-4.15-2.24-7.66-3.56-11.02-.36-.92-1.86-1.95-2.86-1.97-8.76-.15-17.53-.09-26.74-.09Zm77.2-.01c2.03,4.35,3.54,7.82,5.29,11.16,.45,.85,1.66,1.84,2.53,1.85,9.19,.13,18.37,.08,28.45,.08-2.39-4.32-4.19-7.84-6.28-11.17-.58-.93-2.03-1.83-3.09-1.85-8.61-.15-17.23-.08-26.89-.08Zm-312.45,13.1c9.87,0,18.93,.07,27.99-.1,.95-.02,2.31-1.19,2.72-2.16,1.42-3.32,2.51-6.78,3.94-10.8-9.53,0-18.45-.04-27.36,.06-.79,0-1.96,.75-2.3,1.46-1.68,3.54-3.15,7.19-5,11.54Zm111.78-13.09c-9.29,0-18.04-.05-26.78,.08-.84,.01-2.2,1.01-2.41,1.8-.95,3.48-1.56,7.05-2.42,11.2,9.59,0,18.67,.06,27.75-.1,.88-.02,2.31-1.31,2.49-2.21,.66-3.35,.91-6.78,1.38-10.77Zm196.71,13.08c-1.82-4.26-3.3-7.92-4.98-11.48-.34-.72-1.47-1.49-2.25-1.5-8.92-.1-17.84-.07-27.43-.07,1.44,4.09,2.51,7.56,3.92,10.88,.41,.95,1.82,2.06,2.79,2.08,9.08,.16,18.16,.09,27.94,.09Zm-312.44-13.08c-9.63,0-18.27-.03-26.91,.05-.88,0-2.17,.39-2.56,1.03-2.26,3.73-4.32,7.59-6.79,12.02,9.9,0,18.71,.07,27.52-.09,1.19-.02,2.87-.94,3.44-1.94,1.86-3.28,3.3-6.8,5.3-11.06Zm44.11,12.77h30.11c.96-4.27,1.86-8.25,2.88-12.75-9.22,0-17.84-.08-26.46,.1-1.08,.02-2.67,1.24-3.11,2.28-1.33,3.18-2.21,6.55-3.43,10.37Zm81.32-12.55c-.43,4.45-.8,8.37-1.2,12.56h29.81v-12.56h-28.61Zm68.99,12.61c-.5-4.58-.93-8.48-1.38-12.52h-28.45v12.52h29.83Zm-182.85-17.19c9.49,0,18.23,.03,26.97-.05,.67,0,1.72-.58,1.94-1.14,1.47-3.74,2.76-7.55,4.29-11.86-8.88,0-16.84-.08-24.79,.09-1.2,.03-2.91,.94-3.45,1.94-1.78,3.3-3.12,6.84-4.95,11.02Zm296.75-13.01c1.96,4.28,3.38,7.62,5.04,10.84,.45,.89,1.59,2,2.43,2.02,8.82,.15,17.65,.09,27.16,.09-2.27-4.16-3.97-7.54-5.95-10.76-.59-.97-1.93-2.07-2.95-2.09-8.23-.17-16.46-.09-25.73-.09Zm-227.5-.06c-1.69,0-3.31,0-4.92,0-6.63,0-13.25-.05-19.88,.1-.89,.02-2.25,.91-2.56,1.71-1.35,3.47-2.39,7.06-3.76,11.26,6.25,0,11.69,0,17.13,0q11.99,0,14.25-11.63c.03-.14-.05-.31-.26-1.44Zm35.66,12.83c.5-4.43,.93-8.33,1.4-12.49h-27.45c-.86,4.28-1.66,8.26-2.51,12.49h28.56Zm112.2,.25c-.87-4.09-1.41-7.34-2.32-10.49-.28-.98-1.55-2.36-2.4-2.38-8.37-.18-16.74-.11-25.48-.11,.45,3.91,.62,7.2,1.31,10.39,.22,1.02,1.8,2.45,2.79,2.48,8.4,.2,16.82,.11,26.08,.11Zm-255.15-.1c9.54,0,18.15,.04,26.77-.06,.82,0,2.03-.63,2.38-1.32,1.85-3.58,3.48-7.26,5.52-11.61-9.09,0-17.05-.08-25,.09-1.23,.03-2.92,.92-3.58,1.95-2.06,3.18-3.72,6.61-6.09,10.95Zm293.15,.07c-1.28-4.08-2.21-7.57-3.52-10.9-.36-.93-1.83-2.01-2.81-2.03-8.24-.16-16.49-.09-25.29-.09,.92,3.94,1.51,7.34,2.59,10.58,.35,1.04,1.99,2.31,3.07,2.33,8.42,.19,16.85,.11,25.95,.11Zm5-13.05c1.45,4.22,2.44,7.54,3.78,10.7,.42,.99,1.8,2.2,2.76,2.22,8.57,.17,17.14,.1,26.54,.1-1.8-4.24-3.14-7.77-4.83-11.12-.47-.92-2.01-1.81-3.07-1.83-8.09-.15-16.18-.08-25.17-.08Zm-144.51,.27c-.39,4.1-.77,8.12-1.17,12.39h28.29v-12.39h-27.12Zm64.15,.01h-26.98v12.44h28.17c-.41-4.29-.78-8.2-1.19-12.44Zm-1.78-17.33h-25.6v12.38h26.85c-.44-4.33-.84-8.27-1.26-12.38Zm41.42-.28c.91,3.99,1.54,7.4,2.54,10.69,.29,.95,1.67,2.2,2.58,2.22,8.19,.17,16.38,.1,25.01,.1-1.26-4.02-2.16-7.36-3.4-10.58-.38-.99-1.66-2.31-2.56-2.33-7.89-.18-15.79-.11-24.17-.11Zm-103.17,12.8h26.8v-12.81c-4.85,0-9.45,0-14.04,0q-12.04,0-12.76,12.81Zm-108.52,.21c8.79,0,16.75,.07,24.72-.08,1.04-.02,2.62-.91,2.99-1.8,1.45-3.46,2.51-7.07,3.88-11.12-8.33,0-15.96-.09-23.59,.1-1.13,.03-2.72,1.13-3.26,2.17-1.68,3.2-2.96,6.61-4.74,10.73Zm101.02-12.69h-26.08c-.86,4-1.74,8.11-2.65,12.4h27.07c.54-4.03,1.05-7.79,1.67-12.4Zm-103.95-.32c-8.51,0-16.15-.05-23.78,.06-.99,.01-2.42,.55-2.89,1.31-2.2,3.62-4.14,7.39-6.47,11.66,8.84,0,16.81,.07,24.78-.08,1.07-.02,2.61-.83,3.09-1.73,1.8-3.33,3.25-6.85,5.26-11.22Zm205.98,.33h-26.04c.6,4.42,1.15,8.45,1.68,12.34h27.05c-.97-4.44-1.84-8.45-2.69-12.34Zm-166.88,12.51h27.18c.96-4.2,1.91-8.3,2.95-12.84-8.24,0-15.85-.09-23.46,.1-1.11,.03-2.74,1.15-3.17,2.17-1.38,3.33-2.3,6.84-3.5,10.57Zm241.81,.17c-1.79-4.1-3.2-7.6-4.86-10.98-.42-.86-1.6-1.9-2.44-1.92-7.89-.15-15.78-.09-24.3-.09,1.41,4.12,2.43,7.59,3.83,10.91,.39,.93,1.85,1.97,2.84,1.99,8.07,.16,16.15,.09,24.94,.09Zm2.99-13.01c1.92,4.21,3.4,7.7,5.13,11.06,.44,.86,1.66,1.85,2.54,1.87,8.22,.14,16.44,.08,25.51,.08-2.35-4.25-4.1-7.79-6.24-11.09-.64-.99-2.33-1.81-3.56-1.83-7.46-.17-14.93-.08-23.37-.08Z"/>
      <path class="cls-1" d="M241.34,225.38c-56.9,0-113.81,0-170.71,0-8.1,0-11.08-2.92-11.08-11.08-.02-67.39-.02-134.79-.02-202.18C59.53,3.03,62.6,0,71.92,0c64.72,0,129.45,0,194.17,0,48.25,0,96.5,0,144.76,0,9.92,0,12.87,2.88,12.87,12.67,0,66.89,0,133.79-.01,200.68,0,9.46-2.64,12.02-12.15,12.02-56.74,0-113.48,0-170.21,0Zm.11-16.52c52.43,0,104.85,0,157.28,0,6.76,0,7.07-.31,7.08-7.01,0-59.09,0-118.18,0-177.27q0-7.53-7.49-7.54c-104.52,0-209.04,0-313.55,0-7.2,0-7.33,.13-7.33,7.22,0,59.09,0,118.18,0,177.27,0,7.16,.16,7.32,7.24,7.32,52.26,0,104.52,0,156.78,0Z"/>
      <path class="cls-1" d="M0,327.75c3.81,.6,6.85,1.49,9.89,1.49,154.09,.06,308.17,.05,462.26-.02,3.54,0,7.07-.81,11.04-1.29,0,3.56,.15,7.53-.05,11.48-.17,3.46-2.25,5.52-5.7,5.81-2.64,.23-5.32,.14-7.98,.14-153.09,0-306.18,.01-459.26,.01-8.89,0-10.19-1.27-10.2-10.04,0-2.64,0-5.28,0-7.58Z"/>
    </g>
  </g>
</svg>