<?xml version="1.0" encoding="UTF-8"?>
<svg id="Layer_2" data-name="Layer 2" xmlns="http://www.w3.org/2000/svg" xmlns:xlink="http://www.w3.org/1999/xlink" viewBox="0 0 210.93 103.97">
  <defs>
    <style>
      .cls-1, .cls-2 {
        fill: #9dcfcf;
      }

      .cls-3 {
        fill: #4d9d9d;
      }

      .cls-4 {
        fill: none;
        stroke: url(#linear-gradient);
        stroke-linecap: round;
        stroke-miterlimit: 10;
        stroke-width: 6px;
      }

      .cls-2 {
        font-family: Avenir-Light, Avenir;
        font-size: 12.11px;
        font-weight: 300;
        letter-spacing: .6em;
      }
    </style>
    <linearGradient id="linear-gradient" x1="43.72" y1="16.11" x2="173.21" y2="16.11" gradientUnits="userSpaceOnUse">
      <stop offset="0" stop-color="#9dcfcf"/>
      <stop offset="1" stop-color="#4d9d9d"/>
    </linearGradient>
  </defs>
  <g id="Layer_1-2" data-name="Layer 1">
    <g>
      <g>
        <path class="cls-1" d="M17.59,54.11c1.31,1.52,1.96,3.64,1.96,6.36v13.59h-5.29v-13.15c0-1.36-.31-2.42-.92-3.18-.62-.76-1.55-1.14-2.81-1.14-1.65,0-2.94,.6-3.86,1.79-.92,1.2-1.38,2.7-1.38,4.51v11.16H0V39.12H5.29v12.91c0,1.33-.02,2.43-.05,3.3,1.49-2.33,3.7-3.49,6.65-3.49,2.49,0,4.39,.76,5.7,2.28Z"/>
        <path class="cls-1" d="M42.53,54.7c1.76,1.91,2.64,4.5,2.64,7.76,0,.52-.06,1.36-.19,2.52h-15.53c.32,1.71,1.11,3.03,2.35,3.96,1.25,.92,2.76,1.38,4.54,1.38,1.2,0,2.26-.17,3.18-.51s1.77-.85,2.55-1.53l2.23,3.4c-1.26,1-2.57,1.76-3.93,2.26-1.36,.5-2.86,.75-4.51,.75-2.3,0-4.33-.48-6.09-1.46-1.76-.97-3.14-2.33-4.12-4.08-.99-1.75-1.48-3.74-1.48-5.97,0-2.1,.48-4.02,1.43-5.75s2.28-3.1,3.98-4.1c1.7-1,3.62-1.5,5.75-1.5,3.04,0,5.44,.96,7.21,2.86Zm-11.04,2.84c-1.04,.92-1.71,2.21-2.04,3.86h10.72c-.06-1.68-.55-2.97-1.46-3.88-.91-.91-2.07-1.36-3.49-1.36s-2.7,.46-3.74,1.38Z"/>
        <path class="cls-1" d="M55.22,74.06h-5.34V39.12h5.29l.05,34.94Z"/>
        <path class="cls-1" d="M66.77,74.06h-5.34V39.12h5.29l.05,34.94Z"/>
        <path class="cls-3" d="M125.94,52.83h5.58v.15l-8.11,21.69h-1.65l-6.02-12.08-6.07,12.08h-1.6l-8.1-21.69v-.15h5.63l3.35,9.61c.32,.97,.58,1.85,.78,2.62,.45-1.16,.86-2.05,1.21-2.67l4.22-8.49h1.12l4.22,8.49c.42,.74,.84,1.65,1.26,2.72,.19-.74,.47-1.63,.82-2.67l3.35-9.61Z"/>
        <path class="cls-3" d="M138.34,73.64c-1.76-.97-3.14-2.33-4.12-4.08-.99-1.75-1.48-3.72-1.48-5.92s.49-4.17,1.48-5.9c.99-1.73,2.36-3.08,4.12-4.05s3.76-1.46,5.99-1.46,4.24,.48,6.02,1.46c1.78,.97,3.16,2.32,4.15,4.05s1.48,3.7,1.48,5.9-.49,4.17-1.48,5.92c-.99,1.75-2.37,3.11-4.15,4.08-1.78,.97-3.79,1.46-6.02,1.46s-4.23-.48-5.99-1.46Zm10.53-5.12c1.15-1.25,1.72-2.87,1.72-4.88s-.57-3.63-1.72-4.88c-1.15-1.25-2.66-1.87-4.54-1.87s-3.35,.63-4.51,1.89-1.75,2.88-1.75,4.85,.58,3.59,1.75,4.85,2.67,1.89,4.51,1.89,3.39-.62,4.54-1.87Z"/>
        <path class="cls-3" d="M175.44,53.26l-1.36,4.46c-.91-.32-1.84-.48-2.81-.48-1.55,0-2.8,.48-3.74,1.46-.94,.97-1.41,2.3-1.41,3.98v11.79h-5.29v-21.64h4.58l.03,3.2c.61-1.2,1.46-2.11,2.52-2.74,1.07-.63,2.31-.95,3.74-.95s2.67,.31,3.74,.92Z"/>
        <path class="cls-3" d="M184.17,74.47h-5.34V39.53h5.29l.05,34.94Z"/>
        <path class="cls-3" d="M205.64,39.53h5.29v34.94h-4.45l-.11-3.25c-.91,1.2-2.01,2.13-3.32,2.79-1.31,.66-2.81,1-4.49,1-2.04,0-3.85-.49-5.44-1.46-1.59-.97-2.81-2.32-3.69-4.05s-1.31-3.73-1.31-5.99c0-2.13,.44-4.06,1.33-5.78,.89-1.71,2.13-3.05,3.71-4,1.58-.96,3.38-1.43,5.39-1.43,1.46,0,2.81,.28,4.08,.82,1.26,.55,2.31,1.31,3.15,2.28-.1-2.01-.15-4.08-.15-6.21v-9.66Zm-2.5,29.02c1.13-1.23,1.7-2.86,1.7-4.9s-.57-3.62-1.7-4.85c-1.13-1.23-2.64-1.84-4.51-1.84s-3.33,.62-4.46,1.84c-1.13,1.23-1.7,2.85-1.7,4.85s.57,3.63,1.7,4.88c1.13,1.24,2.62,1.87,4.46,1.87s3.38-.61,4.51-1.84Z"/>
        <path class="cls-1" d="M90.05,53.29c1.76,.97,3.14,2.33,4.12,4.08,.99,1.75,1.48,3.72,1.48,5.92s-.49,4.17-1.48,5.9-2.36,3.08-4.12,4.05c-1.76,.97-3.76,1.46-5.99,1.46s-4.24-.48-6.02-1.46-3.16-2.32-4.15-4.05c-.99-1.73-1.48-3.7-1.48-5.9s.49-4.17,1.48-5.92c.99-1.75,2.37-3.11,4.15-4.08s3.79-1.46,6.02-1.46,4.23,.48,5.99,1.46Zm-10.53,5.12c-1.15,1.25-1.72,2.87-1.72,4.88s.57,3.63,1.72,4.88c1.15,1.25,2.66,1.87,4.54,1.87s3.35-.63,4.51-1.89c1.17-1.26,1.75-2.88,1.75-4.85s-.58-3.59-1.75-4.85c-1.16-1.26-2.67-1.89-4.51-1.89s-3.39,.62-4.54,1.87Z"/>
        <path class="cls-4" d="M46.72,28.25c3.98-3.93,27.43-26.31,63.89-25.21,33.99,1.03,55.23,21.73,59.6,26.18"/>
      </g>
      <text class="cls-2" transform="translate(73.24 100.94)"><tspan x="0" y="0">LEARN</tspan></text>
    </g>
  </g>
</svg>